<svg width="15" height="15" viewBox="0 0 15 15" fill="none" xmlns="http://www.w3.org/2000/svg">
<path d="M12.2504 4.75151C12.098 4.6205 11.9449 4.49535 11.7914 4.37549L10.0011 6.16571C10.1102 6.47082 10.1698 6.79928 10.1698 7.14141C10.1698 8.74338 8.86654 10.0467 7.26457 10.0467C6.92244 10.0467 6.59398 9.98706 6.28887 9.87796L4.94531 11.2215C5.7299 11.5434 6.5081 11.7068 7.26457 11.7068C8.16817 11.7068 9.1027 11.4745 10.0421 11.0164C10.7798 10.6565 11.5228 10.1569 12.2504 9.53132C13.4804 8.47363 14.2382 7.42779 14.2698 7.38377C14.374 7.239 14.374 7.04385 14.2698 6.89906C14.2381 6.85504 13.4804 5.8092 12.2504 4.75151Z" fill="#1A1A1A"/>
<path d="M7.26199 9.21682C8.40625 9.21682 9.33718 8.28589 9.33718 7.14163C9.33718 7.04207 9.32971 6.94423 9.31607 6.84839L6.96875 9.19571C7.06462 9.20935 7.16243 9.21682 7.26199 9.21682Z" fill="#1A1A1A"/>
<path d="M14.2248 0.18087C14.0627 0.0188115 13.7999 0.0188115 13.6379 0.18087L10.3771 3.44163C10.2649 3.38054 10.1527 3.32235 10.0406 3.2677C9.10115 2.8095 8.16662 2.57719 7.26303 2.57719C6.35944 2.57719 5.42491 2.8095 4.48548 3.26768C3.74777 3.62752 3.00479 4.12717 2.27723 4.75271C1.04722 5.8104 0.289472 6.85624 0.257818 6.90026C0.153644 7.04502 0.153644 7.24018 0.257818 7.38497C0.289472 7.42899 1.04719 8.47486 2.27723 9.53252C2.65417 9.8566 3.03526 10.1466 3.41759 10.4011L0.301287 13.5174C0.139201 13.6795 0.139201 13.9423 0.301287 14.1044C0.38233 14.1854 0.488524 14.2259 0.594747 14.2259C0.700969 14.2259 0.807191 14.1854 0.888206 14.1044L14.2248 0.76779C14.3869 0.605731 14.3869 0.342929 14.2248 0.18087ZM4.35776 7.14261C4.35776 5.54065 5.66107 4.23734 7.26303 4.23734C7.91467 4.23734 8.51686 4.453 9.00204 4.81668L8.4066 5.41212C8.07847 5.19453 7.6854 5.06742 7.26303 5.06742C6.11877 5.06742 5.18784 5.99835 5.18784 7.14261C5.18784 7.56496 5.31495 7.95803 5.53254 8.28618L4.9371 8.88162C4.57342 8.39644 4.35776 7.79425 4.35776 7.14261Z" fill="#1A1A1A"/>
</svg>
