<svg width="15" height="18" viewBox="0 0 15 18" fill="none" xmlns="http://www.w3.org/2000/svg">
<path d="M7.62891 0C5.77315 0.00237379 3.9941 0.714294 2.68188 1.97965C1.36966 3.245 0.631368 4.96051 0.628906 6.74999C0.628906 11.5959 7.15057 17.6653 7.42766 17.9212C7.48155 17.9717 7.55375 18 7.62891 18C7.70406 18 7.77626 17.9717 7.83016 17.9212C8.10724 17.6653 14.6289 11.5959 14.6289 6.74999C14.6264 4.96051 13.8882 3.245 12.5759 1.97965C11.2637 0.714294 9.48467 0.00237379 7.62891 0V0ZM7.62891 9.84374C6.99436 9.84374 6.37406 9.66229 5.84645 9.32235C5.31884 8.9824 4.90762 8.49923 4.66479 7.93392C4.42196 7.36861 4.35843 6.74656 4.48222 6.14643C4.60601 5.5463 4.91158 4.99505 5.36027 4.56238C5.80897 4.12971 6.38064 3.83506 7.00299 3.71569C7.62535 3.59632 8.27044 3.65759 8.85668 3.89174C9.44293 4.1259 9.944 4.52244 10.2965 5.0312C10.6491 5.53996 10.8372 6.13811 10.8372 6.74999C10.8367 7.57035 10.4985 8.35698 9.89698 8.93706C9.29541 9.51714 8.47965 9.84325 7.62891 9.84374Z" fill="#708090"/>
</svg>
